<svg width="32" height="32" viewBox="0 0 32 32" fill="none" xmlns="http://www.w3.org/2000/svg">
  <defs>
    <linearGradient id="faviconGradient" x1="0%" y1="0%" x2="100%" y2="100%">
      <stop offset="0%" style="stop-color:#3B82F6;stop-opacity:1" />
      <stop offset="50%" style="stop-color:#8B5CF6;stop-opacity:1" />
      <stop offset="100%" style="stop-color:#EC4899;stop-opacity:1" />
    </linearGradient>
  </defs>
  
  <!-- Background Circle -->
  <circle cx="16" cy="16" r="14" fill="url(#faviconGradient)" opacity="0.1"/>
  
  <!-- Shield Shape -->
  <path d="M16 2 L24 5 L24 13 C24 19 16 25 16 25 C16 25 8 19 8 13 L8 5 Z" 
        fill="url(#faviconGradient)"/>
  
  <!-- Inner Shield -->
  <path d="M16 4 L22 6.5 L22 13 C22 17 16 22 16 22 C16 22 10 17 10 13 L10 6.5 Z" 
        fill="white" opacity="0.9"/>
  
  <!-- AI Symbol -->
  <g transform="translate(16, 14)">
    <circle cx="0" cy="0" r="1.5" fill="url(#faviconGradient)" opacity="0.8"/>
    <line x1="-2" y1="-1" x2="-1" y2="-0.5" stroke="url(#faviconGradient)" stroke-width="1" opacity="0.6"/>
    <line x1="-2" y1="1" x2="-1" y2="0.5" stroke="url(#faviconGradient)" stroke-width="1" opacity="0.6"/>
    <line x1="2" y1="-1" x2="1" y2="-0.5" stroke="url(#faviconGradient)" stroke-width="1" opacity="0.6"/>
    <line x1="2" y1="1" x2="1" y2="0.5" stroke="url(#faviconGradient)" stroke-width="1" opacity="0.6"/>
    <circle cx="-2" cy="-1" r="0.5" fill="url(#faviconGradient)" opacity="0.6"/>
    <circle cx="-2" cy="1" r="0.5" fill="url(#faviconGradient)" opacity="0.6"/>
    <circle cx="2" cy="-1" r="0.5" fill="url(#faviconGradient)" opacity="0.6"/>
    <circle cx="2" cy="1" r="0.5" fill="url(#faviconGradient)" opacity="0.6"/>
  </g>
</svg>
